<svg width="243" height="241" viewBox="0 0 243 241" fill="none" xmlns="http://www.w3.org/2000/svg">
<path d="M238.721 150.588H3.96286C2.95751 150.587 1.99367 150.134 1.28278 149.328C0.571887 148.522 0.172005 147.43 0.170868 146.29V5.15924C0.172002 4.01969 0.571877 2.92719 1.28277 2.1214C1.99365 1.31562 2.9575 0.862371 3.96284 0.861084H238.721C239.726 0.862375 240.69 1.31563 241.401 2.12141C242.112 2.92719 242.512 4.01969 242.513 5.15924V146.29C242.512 147.43 242.112 148.522 241.401 149.328C240.69 150.134 239.726 150.587 238.721 150.588Z" fill="#EAEAEA"/>
<path d="M69.6536 87.9413H25.4876C24.9998 87.9407 24.532 87.7207 24.187 87.3297C23.842 86.9386 23.648 86.4085 23.6474 85.8554V33.7185C23.648 33.1654 23.842 32.6353 24.187 32.2442C24.532 31.8532 24.9998 31.6332 25.4876 31.6326H69.6536C70.1415 31.6332 70.6093 31.8532 70.9543 32.2442C71.2993 32.6353 71.4933 33.1654 71.4939 33.7185V85.8555C71.4933 86.4085 71.2993 86.9386 70.9543 87.3297C70.6093 87.7207 70.1415 87.9407 69.6536 87.9413ZM25.4876 32.4669C25.1949 32.4673 24.9143 32.5993 24.7073 32.8339C24.5003 33.0685 24.3838 33.3866 24.3835 33.7185V85.8555C24.3838 86.1873 24.5003 86.5054 24.7073 86.74C24.9143 86.9747 25.1949 87.1066 25.4876 87.107H69.6536C69.9464 87.1066 70.2271 86.9747 70.4341 86.74C70.6411 86.5054 70.7575 86.1873 70.7578 85.8555V33.7185C70.7575 33.3866 70.6411 33.0685 70.4341 32.8339C70.2271 32.5993 69.9464 32.4673 69.6536 32.4669H25.4876Z" fill="#3F3D56"/>
<path d="M143.425 87.9413H99.2589C98.771 87.9407 98.3033 87.7207 97.9583 87.3297C97.6133 86.9386 97.4192 86.4085 97.4187 85.8554V33.7185C97.4192 33.1654 97.6133 32.6353 97.9583 32.2442C98.3033 31.8532 98.771 31.6332 99.2589 31.6326H143.425C143.913 31.6332 144.381 31.8532 144.726 32.2442C145.071 32.6353 145.265 33.1654 145.265 33.7185V85.8555C145.265 86.4085 145.071 86.9386 144.726 87.3297C144.381 87.7207 143.913 87.9407 143.425 87.9413ZM99.2589 32.4669C98.9662 32.4673 98.6855 32.5993 98.4785 32.8339C98.2716 33.0685 98.1551 33.3866 98.1548 33.7185V85.8555C98.1551 86.1873 98.2715 86.5054 98.4785 86.74C98.6855 86.9747 98.9662 87.1066 99.2589 87.107H143.425C143.718 87.1066 143.998 86.9747 144.205 86.74C144.412 86.5054 144.529 86.1873 144.529 85.8555V33.7185C144.529 33.3866 144.412 33.0685 144.205 32.8339C143.998 32.5993 143.718 32.4673 143.425 32.4669H99.2589Z" fill="#3F3D56"/>
<path d="M217.196 87.9413H173.03C172.542 87.9407 172.075 87.7207 171.73 87.3297C171.385 86.9386 171.19 86.4085 171.19 85.8554V33.7185C171.19 33.1654 171.385 32.6353 171.73 32.2442C172.075 31.8532 172.542 31.6332 173.03 31.6326H217.196C217.684 31.6332 218.152 31.8532 218.497 32.2442C218.842 32.6353 219.036 33.1654 219.036 33.7185V85.8555C219.036 86.4085 218.842 86.9386 218.497 87.3297C218.152 87.7207 217.684 87.9407 217.196 87.9413ZM173.03 32.4669C172.737 32.4673 172.457 32.5993 172.25 32.8339C172.043 33.0685 171.926 33.3866 171.926 33.7185V85.8555C171.926 86.1873 172.043 86.5054 172.25 86.74C172.457 86.9747 172.737 87.1066 173.03 87.107H217.196C217.489 87.1066 217.77 86.9747 217.977 86.74C218.184 86.5054 218.3 86.1873 218.3 85.8555V33.7185C218.3 33.3866 218.184 33.0685 217.977 32.8339C217.77 32.5993 217.489 32.4673 217.196 32.4669H173.03Z" fill="#3F3D56"/>
<path d="M39.0421 119.817C39.2062 119.817 39.3687 119.78 39.5203 119.709C39.6719 119.638 39.8097 119.534 39.9257 119.402C40.0418 119.271 40.1339 119.115 40.1967 118.943C40.2596 118.771 40.2919 118.587 40.292 118.401C40.2921 118.215 40.2598 118.031 40.1971 117.859C40.1344 117.688 40.0424 117.531 39.9264 117.4C39.8105 117.268 39.6728 117.164 39.5212 117.093C39.3697 117.021 39.2072 116.985 39.0432 116.985H27.8317C27.5003 116.985 27.1825 117.134 26.9482 117.399C26.7139 117.665 26.5823 118.025 26.5823 118.401C26.5823 118.776 26.7139 119.137 26.9482 119.402C27.1825 119.668 27.5003 119.817 27.8317 119.817H39.0421Z" fill="#E6E6E6"/>
<path d="M67.3096 111.473C67.641 111.474 67.959 111.325 68.1937 111.06C68.4285 110.795 68.5607 110.435 68.5613 110.06C68.5619 109.684 68.4308 109.324 68.197 109.057C67.9631 108.791 67.6456 108.642 67.3142 108.641H27.8317C27.5007 108.642 27.1835 108.791 26.9496 109.057C26.7158 109.322 26.5845 109.682 26.5845 110.057C26.5845 110.432 26.7158 110.792 26.9496 111.058C27.1835 111.323 27.5007 111.472 27.8317 111.473H67.3096Z" fill="#E6E6E6"/>
<path d="M112.813 119.817C113.145 119.817 113.463 119.668 113.697 119.402C113.931 119.137 114.063 118.776 114.063 118.401C114.063 118.025 113.931 117.665 113.697 117.399C113.463 117.134 113.145 116.985 112.813 116.985H101.603C101.272 116.985 100.954 117.134 100.719 117.399C100.485 117.665 100.354 118.025 100.354 118.401C100.354 118.776 100.485 119.137 100.719 119.402C100.954 119.668 101.272 119.817 101.603 119.817H112.813Z" fill="#E6E6E6"/>
<path d="M141.081 111.473C141.412 111.472 141.729 111.323 141.963 111.058C142.197 110.792 142.328 110.432 142.328 110.057C142.328 109.682 142.197 109.322 141.963 109.057C141.729 108.791 141.412 108.642 141.081 108.641H101.603C101.272 108.642 100.955 108.791 100.721 109.057C100.487 109.322 100.356 109.682 100.356 110.057C100.356 110.432 100.487 110.792 100.721 111.058C100.955 111.323 101.272 111.472 101.603 111.473H141.081Z" fill="#E6E6E6"/>
<path d="M186.585 119.817C186.916 119.817 187.234 119.668 187.468 119.402C187.702 119.137 187.834 118.776 187.834 118.401C187.834 118.025 187.702 117.665 187.468 117.399C187.234 117.134 186.916 116.985 186.585 116.985H175.374C175.21 116.985 175.048 117.021 174.896 117.092C174.744 117.163 174.607 117.268 174.491 117.399C174.375 117.53 174.282 117.686 174.22 117.858C174.157 118.03 174.124 118.214 174.124 118.4C174.124 118.586 174.157 118.77 174.219 118.942C174.282 119.114 174.374 119.27 174.49 119.402C174.606 119.533 174.744 119.638 174.895 119.709C175.047 119.78 175.209 119.817 175.373 119.817H186.585Z" fill="#E6E6E6"/>
<path d="M214.852 111.473C215.183 111.472 215.5 111.323 215.734 111.058C215.968 110.792 216.099 110.432 216.099 110.057C216.099 109.682 215.968 109.322 215.734 109.057C215.5 108.791 215.183 108.642 214.852 108.641H175.374C175.21 108.641 175.048 108.677 174.896 108.748C174.744 108.819 174.606 108.923 174.49 109.054C174.374 109.185 174.282 109.341 174.219 109.513C174.155 109.684 174.123 109.868 174.123 110.054C174.122 110.24 174.154 110.425 174.217 110.597C174.279 110.768 174.371 110.925 174.487 111.057C174.603 111.188 174.74 111.293 174.892 111.364C175.043 111.436 175.206 111.473 175.37 111.473H214.852Z" fill="#E6E6E6"/>
<path d="M67.3096 103.268C67.641 103.268 67.9588 103.119 68.1932 102.853C68.4276 102.588 68.5594 102.228 68.5595 101.852C68.5596 101.477 68.4281 101.116 68.1939 100.851C67.9597 100.585 67.642 100.436 67.3107 100.435H27.8317C27.5003 100.435 27.1825 100.585 26.9482 100.85C26.7139 101.116 26.5823 101.476 26.5823 101.852C26.5823 102.227 26.7139 102.587 26.9482 102.853C27.1825 103.118 27.5003 103.268 27.8317 103.268H67.3096Z" fill="#BB6BD9"/>
<path d="M141.081 103.268C141.412 103.268 141.73 103.118 141.964 102.853C142.199 102.587 142.33 102.227 142.33 101.852C142.33 101.476 142.199 101.116 141.964 100.85C141.73 100.585 141.412 100.435 141.081 100.435H101.603C101.272 100.435 100.954 100.585 100.719 100.85C100.485 101.116 100.354 101.476 100.354 101.852C100.354 102.227 100.485 102.587 100.719 102.853C100.954 103.118 101.272 103.268 101.603 103.268H141.081Z" fill="#BB6BD9"/>
<path d="M214.852 103.268C215.184 103.268 215.501 103.118 215.736 102.853C215.97 102.587 216.102 102.227 216.102 101.852C216.102 101.476 215.97 101.116 215.736 100.85C215.501 100.585 215.184 100.435 214.852 100.435H175.374C175.043 100.435 174.725 100.584 174.491 100.85C174.256 101.115 174.124 101.475 174.124 101.851C174.124 102.227 174.256 102.587 174.49 102.853C174.724 103.118 175.042 103.268 175.373 103.268H214.852Z" fill="#BB6BD9"/>
<path d="M60.2427 77.8372C60.5737 77.8365 60.8909 77.687 61.1247 77.4215C61.3586 77.156 61.4899 76.7962 61.4899 76.421C61.4899 76.0459 61.3586 75.686 61.1247 75.4205C60.8909 75.155 60.5737 75.0055 60.2427 75.0049H34.8985C34.7345 75.0045 34.572 75.0408 34.4203 75.1117C34.2686 75.1825 34.1307 75.2866 34.0144 75.4178C33.8982 75.5491 33.8059 75.705 33.7429 75.8767C33.6798 76.0484 33.6472 76.2324 33.6469 76.4184C33.6466 76.6044 33.6786 76.7886 33.7411 76.9606C33.8036 77.1325 33.8954 77.2888 34.0112 77.4205C34.127 77.5523 34.2646 77.6569 34.416 77.7284C34.5675 77.7998 34.7299 77.8368 34.894 77.8372H60.2427Z" fill="#E6E6E6"/>
<path d="M60.2427 69.4938C60.5737 69.4931 60.8909 69.3436 61.1247 69.0781C61.3586 68.8126 61.4899 68.4528 61.4899 68.0776C61.4899 67.7025 61.3586 67.3427 61.1247 67.0772C60.8909 66.8116 60.5737 66.6622 60.2427 66.6615H34.8985C34.7345 66.6612 34.572 66.6975 34.4203 66.7683C34.2686 66.8392 34.1307 66.9432 34.0144 67.0744C33.8982 67.2057 33.8059 67.3616 33.7429 67.5333C33.6798 67.705 33.6472 67.8891 33.6469 68.075C33.6466 68.261 33.6786 68.4452 33.7411 68.6172C33.8036 68.7891 33.8954 68.9454 34.0112 69.0772C34.127 69.2089 34.2646 69.3135 34.416 69.385C34.5675 69.4565 34.7299 69.4934 34.894 69.4938H60.2427Z" fill="#E6E6E6"/>
<path d="M47.5707 59.711C51.9495 59.711 55.4993 55.6874 55.4993 50.724C55.4993 45.7606 51.9495 41.7369 47.5707 41.7369C43.1918 41.7369 39.642 45.7606 39.642 50.724C39.642 55.6874 43.1918 59.711 47.5707 59.711Z" fill="#BB6BD9"/>
<path d="M134.014 77.8371C134.345 77.8365 134.662 77.687 134.896 77.4215C135.13 77.156 135.261 76.7962 135.261 76.421C135.261 76.0459 135.13 75.686 134.896 75.4205C134.662 75.155 134.345 75.0055 134.014 75.0049H108.67C108.339 75.0055 108.022 75.155 107.788 75.4205C107.554 75.686 107.423 76.0459 107.423 76.421C107.423 76.7962 107.554 77.156 107.788 77.4215C108.022 77.687 108.339 77.8365 108.67 77.8371H134.014Z" fill="#E6E6E6"/>
<path d="M134.014 69.4938C134.345 69.4931 134.662 69.3436 134.896 69.0781C135.13 68.8126 135.261 68.4528 135.261 68.0776C135.261 67.7025 135.13 67.3427 134.896 67.0771C134.662 66.8116 134.345 66.6622 134.014 66.6615H108.67C108.339 66.6622 108.022 66.8116 107.788 67.0771C107.554 67.3427 107.423 67.7025 107.423 68.0776C107.423 68.4528 107.554 68.8126 107.788 69.0781C108.022 69.3436 108.339 69.4931 108.67 69.4938H134.014Z" fill="#E6E6E6"/>
<path d="M121.342 59.711C125.721 59.711 129.271 55.6874 129.271 50.724C129.271 45.7606 125.721 41.7369 121.342 41.7369C116.963 41.7369 113.413 45.7606 113.413 50.724C113.413 55.6874 116.963 59.711 121.342 59.711Z" fill="#BB6BD9"/>
<path d="M207.785 77.8372C207.949 77.8375 208.112 77.8012 208.264 77.7303C208.415 77.6595 208.553 77.5555 208.669 77.4242C208.786 77.293 208.878 77.137 208.941 76.9653C209.004 76.7937 209.037 76.6096 209.037 76.4236C209.037 76.2376 209.005 76.0534 208.943 75.8815C208.88 75.7095 208.788 75.5532 208.673 75.4215C208.557 75.2897 208.419 75.1852 208.268 75.1137C208.116 75.0422 207.954 75.0052 207.79 75.0049H182.441C182.11 75.0055 181.793 75.155 181.559 75.4205C181.325 75.686 181.194 76.0459 181.194 76.421C181.194 76.7962 181.325 77.156 181.559 77.4215C181.793 77.687 182.11 77.8365 182.441 77.8372H207.785Z" fill="#E6E6E6"/>
<path d="M207.785 69.4938C207.949 69.4941 208.112 69.4578 208.264 69.387C208.415 69.3161 208.553 69.2121 208.669 69.0808C208.786 68.9496 208.878 68.7936 208.941 68.622C209.004 68.4503 209.037 68.2662 209.037 68.0802C209.037 67.8943 209.005 67.7101 208.943 67.5381C208.88 67.3662 208.788 67.2099 208.673 67.0781C208.557 66.9464 208.419 66.8418 208.268 66.7703C208.116 66.6988 207.954 66.6618 207.79 66.6615H182.441C182.11 66.6622 181.793 66.8116 181.559 67.0772C181.325 67.3427 181.194 67.7025 181.194 68.0776C181.194 68.4528 181.325 68.8126 181.559 69.0781C181.793 69.3436 182.11 69.4931 182.441 69.4938H207.785Z" fill="#E6E6E6"/>
<path d="M196.527 59.711C200.906 59.711 204.456 55.6874 204.456 50.724C204.456 45.7606 200.906 41.7369 196.527 41.7369C192.148 41.7369 188.599 45.7606 188.599 50.724C188.599 55.6874 192.148 59.711 196.527 59.711Z" fill="#BB6BD9"/>
<path d="M101.712 235.394H106.403L108.635 214.886L101.712 214.886L101.712 235.394Z" fill="#FFB6B6"/>
<path d="M100.516 233.658L109.754 233.658H109.754C111.315 233.658 112.813 234.361 113.917 235.612C115.021 236.864 115.641 238.561 115.641 240.331V240.547L100.516 240.548L100.516 233.658Z" fill="#2F2E41"/>
<path d="M117.782 235.394H122.473L124.705 214.886L117.782 214.886L117.782 235.394Z" fill="#FFB6B6"/>
<path d="M116.586 233.658L125.823 233.658H125.824C127.385 233.658 128.883 234.361 129.987 235.612C131.091 236.864 131.711 238.561 131.711 240.331V240.547L116.586 240.548L116.586 233.658Z" fill="#2F2E41"/>
<path d="M135.607 146.053L124.148 226.279L116.496 225.845L116.686 152.181L135.607 146.053Z" fill="#2F2E41"/>
<path d="M104.715 121.542L132.518 121.979L135.607 146.053L116.686 156.12L108.461 224.111L101.191 223.677L98.5365 139.487L104.715 121.542Z" fill="#2F2E41"/>
<path d="M121.32 59.3885C126.011 59.3885 129.815 55.0773 129.815 49.7591C129.815 44.441 126.011 40.1298 121.32 40.1298C116.628 40.1298 112.824 44.441 112.824 49.7591C112.824 55.0773 116.628 59.3885 121.32 59.3885Z" fill="#FFB9B9"/>
<path d="M125.296 64.9462L130.201 72.0817L127.884 126.794L109.735 126.356L106.646 78.6473L110.507 66.3917L111.905 63.6451L125.296 64.9462Z" fill="#E4E4E4"/>
<path d="M133.676 92.6538L137.924 111.037L133.676 129.42L140.627 139.925L146.806 106.66C146.806 106.66 142.172 79.5228 141.786 76.4589C141.4 73.395 140.627 72.9573 140.627 72.9573L137.538 73.395L133.676 92.6538Z" fill="#2F2E41"/>
<path d="M102.784 99.6568L100.081 105.347L99.3087 114.976L100.853 125.919L95.4474 135.986L90.0414 108.411L95.8334 72.9572H98.1506L102.784 99.6568Z" fill="#2F2E41"/>
<path d="M113.973 52.2533L113.771 56.146C113.771 56.146 111.28 49.7591 110.893 43.1937C110.507 36.6282 117.072 35.3151 120.933 34.8774C124.795 34.4397 131.36 37.5036 131.36 41.0052C131.36 44.5068 124.409 43.6314 121.706 42.756C119.003 41.8806 117.844 49.3215 117.844 49.3215L116.3 49.7592L113.973 52.2533Z" fill="#2F2E41"/>
<path d="M134.835 98.7816L133.29 115.414L136.38 125.481L138.31 135.111C138.31 135.111 138.31 144.302 130.587 144.74C122.864 145.178 100.467 144.302 100.467 144.302C100.467 144.302 97.3781 143.865 94.675 136.861C91.972 129.858 100.081 123.293 100.081 123.293L102.398 114.101L101.626 102.721L96.2196 72.9573L112.245 63.5468L116.3 108.411L124.988 64.8599L127.884 67.2672L140.241 72.9573L134.835 98.7816Z" fill="#2F2E41"/>
</svg>
